<svg width="14" height="14" viewBox="0 0 14 14" fill="none" xmlns="http://www.w3.org/2000/svg">
<path fill-rule="evenodd" clip-rule="evenodd" d="M3.78967 0H10.2103C12.3 0 14 1.70001 14 3.78967V10.2104C14 12.3 12.3 14 10.2104 14H3.78967C1.70001 14 0 12.3 0 10.2104V3.78967C0 1.70001 1.70001 0 3.78967 0ZM3.17198 7C3.17198 9.11081 4.88919 10.828 7 10.828C9.11081 10.828 10.828 9.11081 10.828 7C10.828 4.88919 9.11081 3.17198 7 3.17198C4.88919 3.17198 3.17198 4.88919 3.17198 7ZM9.78842 2.94362C9.78842 3.5674 10.2958 4.07475 10.9196 4.07475C11.5433 4.07475 12.0508 3.5674 12.0508 2.94362C12.0508 2.31984 11.5433 1.81238 10.9196 1.81238C10.2958 1.81238 9.78842 2.31984 9.78842 2.94362ZM4.66663 6.99984C4.66663 5.71321 5.71341 4.6665 6.99996 4.6665C8.28659 4.6665 9.33329 5.71321 9.33329 6.99984C9.33329 8.28638 8.28659 9.33317 6.99996 9.33317C5.71341 9.33317 4.66663 8.28638 4.66663 6.99984Z" fill="#38C1BF"/>
</svg>