<svg width="17" height="10" viewBox="0 0 17 10" fill="none" xmlns="http://www.w3.org/2000/svg">
<path d="M16.6102 0.677197C16.729 0.286507 16.6102 0 16.0486 0H14.1881C13.7147 0 13.4984 0.247858 13.3796 0.520081C13.3796 0.520081 12.4337 2.80457 11.0933 4.28583C10.6606 4.71685 10.4629 4.85297 10.2271 4.85297C10.1092 4.85297 9.9378 4.71685 9.9378 4.32616V0.677197C9.9378 0.208368 9.80121 0 9.40672 0H6.48324C6.18801 0 6.00985 0.21677 6.00985 0.423458C6.00985 0.867081 6.68006 0.969585 6.74878 2.21979V4.93194C6.74878 5.52596 6.64103 5.63435 6.40349 5.63435C5.77315 5.63435 4.2393 3.34146 3.329 0.716686C3.15169 0.206688 2.97269 0.000840535 2.4976 0.000840535H0.637974C0.106046 0.000840535 0 0.248698 0 0.520921C0 1.00991 0.630338 3.42968 2.93621 6.62998C4.47345 8.81532 6.63764 10 8.60925 10C9.79103 10 9.93695 9.73702 9.93695 9.28331V7.63149C9.93695 7.10553 10.0498 6.99966 10.4239 6.99966C10.6988 6.99966 11.1722 7.13746 12.2759 8.19022C13.5366 9.43875 13.7453 9.99916 14.4537 9.99916H16.3133C16.8444 9.99916 17.1099 9.73618 16.9572 9.21694C16.7901 8.70022 16.1877 7.94824 15.3886 7.05848C14.9542 6.551 14.3052 6.00487 14.1075 5.73181C13.8318 5.37977 13.9116 5.22433 14.1075 4.91178C14.1084 4.91262 16.3744 1.75181 16.6102 0.677197Z" fill="#38C1BF"/>
</svg>