<svg width="500" height="80" viewBox="0 0 500 80" fill="none" xmlns="http://www.w3.org/2000/svg">
<path d="M7.44531 38.2552L19.6293 68.4034L19.8798 68.0924C18.4864 63.6479 16.7227 52.7935 16.7227 45.8334C16.7227 39.1667 20.7064 36.8215 25.0839 39.1667C28.0297 40.7449 31.1785 41.8464 33.4081 41.8464C36.3661 41.8464 40.2783 42.1545 45.0808 39.9219C49.8834 37.6894 55.1429 38.7927 56.2268 45.6514C57.5145 53.797 54.8451 69.1897 51.7793 78.0785L52.5513 78.4349L54.268 75.7552L61.7931 59.9219L67.6459 39.9219L65.9737 24.0885L58.4486 19.9219L44.2345 25.7552L31.6927 27.4219L15.8065 20.7552L8.28143 24.0885L7.44531 38.2552Z" fill="#82EEEC"/>
<path d="M5.73492 44.2048L19.2747 68.982L19.8628 68.0338C15.9609 59.145 10.9388 41.8662 10.9388 34.5795C10.9388 27.2928 14.9322 24.5497 19.8628 26.8642L27.3673 31.922C30.9486 34.0623 37.8048 34.5978 47.8382 29.2645C57.8716 23.9312 60.3548 29.7605 60.9123 32.5382C64.2568 45.0938 57.6593 66.5578 51.8064 77.993L51.8979 78.3512L52.3449 78.7733L63.4272 63.3715L71.7884 40.8715L72.6245 23.3715L65.9355 11.7049L50.8854 14.2049L37.5074 19.2048L24.1295 16.7048L14.9322 10.8716L7.40716 12.5382L3.22656 25.8715L5.73492 44.2048Z" fill="#38C1BF"/>
<path d="M2.93755 15.3599C-2.44976 39.5266 10.5799 56.6423 19.1125 68.3713C0.990326 37.0901 5.58425 25.2521 7.2565 21.0855C8.92874 16.9188 15.616 13.4338 20.7707 17.8495C26.5547 22.804 30.6232 24.1793 34.9836 24.1793C39.3438 24.1793 41.5391 23.8495 51.5725 17.8495C54.9958 15.8024 63.345 14.2587 66.9297 21.8726C70.5144 29.4866 68.8603 54.5835 52.5567 78.3713C76.8042 52.538 80.4299 22.3111 72.7953 13.4338C67.7786 7.60049 62.5901 6.70469 58.4095 6.70469C54.2289 6.70469 46.7038 9.20469 40.851 11.7047C36.1687 13.7047 29.7028 12.538 27.4731 11.7047C24.1286 10.038 17.4368 6.24683 12.7293 6.70469C7.24803 7.23783 4.37785 10.6526 2.93755 15.3599Z" fill="#194A97" stroke="#194A97" stroke-linejoin="round"/>
<path d="M109.421 38.2487C117.423 38.2487 121.424 33.661 121.424 24.4857C121.424 16.4952 117.423 12.5 109.421 12.5H101.762V38.2487H109.421ZM97.5322 41.6667V9.08203H109.421C120.242 9.08203 125.653 14.2166 125.653 24.4857C125.653 35.9397 120.242 41.6667 109.421 41.6667H97.5322ZM141.269 17.7408C148.097 17.7408 151.511 21.1057 151.511 27.8353C151.511 28.7923 151.442 29.8177 151.305 30.9115H134.455C134.455 35.803 137.321 38.2487 143.052 38.2487C145.78 38.2487 148.204 37.9448 150.322 37.3372V40.7552C148.204 41.3628 145.628 41.6667 142.595 41.6667C134.349 41.6667 130.226 37.5878 130.226 29.4303C130.226 21.6373 133.907 17.7408 141.269 17.7408ZM134.455 27.4023H147.441C147.35 23.2097 145.292 21.1133 141.269 21.1133C137.001 21.1133 134.73 23.2097 134.455 27.4023ZM157.204 41.6667V17.7408H160.062L160.816 20.7943C163.27 18.7587 165.968 17.7408 168.91 17.7408C174.9 17.7408 177.895 20.7107 177.895 26.6503V41.6667H173.666V26.582C173.666 23.0273 171.89 21.25 168.338 21.25C165.914 21.25 163.613 22.2602 161.433 24.2807V41.6667H157.204ZM184.776 13.8672H187.428L188.343 17.7408H194.836V21.1588H189.005V34.8992C189.005 37.1322 189.973 38.2487 191.91 38.2487H194.836V41.6667H190.811C186.788 41.6667 184.776 39.5172 184.776 35.2182V13.8672ZM199.089 34.4433C199.089 29.5367 202.335 27.0833 208.828 27.0833C210.916 27.0833 213.003 27.2352 215.092 27.539V25.2832C215.092 22.5337 212.935 21.1588 208.622 21.1588C206.152 21.1588 203.622 21.5387 201.032 22.2982V18.8802C203.622 18.1207 206.152 17.7408 208.622 17.7408C215.754 17.7408 219.321 20.217 219.321 25.1693V41.6667H216.943L215.48 39.2968C213.087 40.8767 210.482 41.6667 207.662 41.6667C201.947 41.6667 199.089 39.2588 199.089 34.4433ZM208.828 30.5013C205.154 30.5013 203.318 31.7925 203.318 34.375C203.318 36.9575 204.766 38.2487 207.662 38.2487C210.589 38.2487 213.065 37.474 215.092 35.9245V30.957C213.003 30.6532 210.916 30.5013 208.828 30.5013ZM230.662 9.08203V41.6667H226.432V9.08203H230.662Z" fill="#194A97"/>
<path d="M250.734 41.6667H246.345L260.223 9.08203H264.91L278.856 41.6667H274.169L269.94 31.4128H259.126L260.291 27.9948H268.522L262.418 13.2292L250.734 41.6667ZM300.918 40.983C298.937 41.4388 296.803 41.6667 294.517 41.6667C285.982 41.6667 281.714 37.5272 281.714 29.248C281.714 21.5767 285.982 17.7408 294.517 17.7408C296.803 17.7408 298.937 17.9687 300.918 18.4245V21.8425C298.937 21.3867 296.728 21.1588 294.288 21.1588C288.726 21.1588 285.943 23.8553 285.943 29.248C285.943 35.2485 288.726 38.2487 294.288 38.2487C296.728 38.2487 298.937 38.0208 300.918 37.5652V40.983ZM305.171 34.4433C305.171 29.5367 308.418 27.0833 314.91 27.0833C316.999 27.0833 319.087 27.2352 321.174 27.539V25.2832C321.174 22.5337 319.019 21.1588 314.704 21.1588C312.236 21.1588 309.706 21.5387 307.114 22.2982V18.8802C309.706 18.1207 312.236 17.7408 314.704 17.7408C321.838 17.7408 325.405 20.217 325.405 25.1693V41.6667H323.027L321.564 39.2968C319.171 40.8767 316.564 41.6667 313.744 41.6667C308.029 41.6667 305.171 39.2588 305.171 34.4433ZM314.91 30.5013C311.238 30.5013 309.4 31.7925 309.4 34.375C309.4 36.9575 310.848 38.2487 313.744 38.2487C316.671 38.2487 319.147 37.474 321.174 35.9245V30.957C319.087 30.6532 316.999 30.5013 314.91 30.5013ZM348.405 22.6172C346.698 21.7968 344.746 21.3867 342.552 21.3867C337.719 21.3867 335.305 23.9463 335.305 29.0658C335.305 35.127 337.719 38.1575 342.552 38.1575C344.746 38.1575 346.698 37.8613 348.405 37.2688V22.6172ZM352.634 40.2312C349.723 41.1882 346.134 41.6667 341.866 41.6667C334.718 41.6667 331.142 37.5195 331.142 29.2253C331.142 21.569 334.938 17.7408 342.529 17.7408C344.602 17.7408 346.56 18.1207 348.405 18.8802V9.08203H352.634V40.2312ZM369.392 17.7408C376.221 17.7408 379.634 21.1057 379.634 27.8353C379.634 28.7923 379.565 29.8177 379.428 30.9115H362.579C362.579 35.803 365.445 38.2487 371.176 38.2487C373.903 38.2487 376.328 37.9448 378.447 37.3372V40.7552C376.328 41.3628 373.751 41.6667 370.718 41.6667C362.472 41.6667 358.35 37.5878 358.35 29.4303C358.35 21.6373 362.03 17.7408 369.392 17.7408ZM362.579 27.4023H375.565C375.473 23.2097 373.417 21.1133 369.392 21.1133C365.124 21.1133 362.853 23.2097 362.579 27.4023ZM385.328 41.6667V17.7408H388.186L388.895 20.7487C391.196 18.7435 393.703 17.7408 396.417 17.7408C399.892 17.7408 402.261 18.8347 403.527 21.0222C406.132 18.8347 408.778 17.7408 411.46 17.7408C416.977 17.7408 419.736 20.7715 419.736 26.8327V41.6667H415.507V26.6048C415.507 23.035 413.997 21.25 410.98 21.25C408.724 21.25 406.612 22.283 404.647 24.349V41.6667H400.417V26.6732C400.417 23.0577 398.923 21.25 395.937 21.25C393.559 21.25 391.432 22.283 389.557 24.349V41.6667H385.328ZM423.759 17.7408H428.355L435.146 36.4258L442.164 17.7408H446.646L436.678 42.373C434.91 46.7177 432.258 49.4293 428.721 50.5078L427.097 47.5228C429.78 46.353 431.731 44.4467 432.95 41.8033L423.759 17.7408Z" fill="#38C1BF"/>
<path d="M101.124 64.7477H99.245V71.6667H97.207V56.2631H99.245V63.0551H100.837L106.24 56.2631H108.777L102.875 63.7322L109.212 71.6667H106.718L101.124 64.7477ZM120.188 60.2197V71.6667H118.214V61.8384H114.308L114.074 66.1231C113.946 68.0909 113.614 69.4979 113.076 70.3442C112.545 71.1907 111.7 71.6314 110.539 71.6667H109.754V69.9422L110.316 69.8999C110.953 69.8294 111.41 69.4627 111.686 68.7997C111.962 68.1367 112.138 66.9096 112.216 65.1181L112.429 60.2197H120.188ZM130.771 60.2197H132.735V71.6667H130.771V63.3196L125.474 71.6667H123.511V60.2197H125.474V68.5776L130.771 60.2197ZM145.271 71.6667H143.307V66.7791H138.032V71.6667H136.057V60.2197H138.032V65.1816H143.307V60.2197H145.271V71.6667ZM155.864 60.2197H157.828V71.6667H155.864V63.3196L150.568 71.6667H148.604V60.2197H150.568V68.5776L155.864 60.2197ZM164.558 66.7896H163.125V71.6667H161.151V60.2197H163.125V65.0652H164.409L168.272 60.2197H170.65L166.108 65.7211L171.033 71.6667H168.538L164.558 66.7896ZM179.811 71.6667C179.699 71.4411 179.607 71.0391 179.535 70.4607C178.622 71.4057 177.533 71.8784 176.266 71.8784C175.134 71.8784 174.204 71.5609 173.475 70.9262C172.752 70.2844 172.391 69.4732 172.391 68.4929C172.391 67.3009 172.844 66.3771 173.751 65.7211C174.664 65.0581 175.945 64.7266 177.593 64.7266H179.503V63.8274C179.503 63.1432 179.299 62.6002 178.888 62.1981C178.478 61.7891 177.873 61.5846 177.073 61.5846C176.373 61.5846 175.784 61.7609 175.311 62.1136C174.836 62.4662 174.6 62.8929 174.6 63.3936H172.625C172.625 62.8224 172.828 62.2722 173.231 61.7432C173.64 61.2072 174.192 60.7841 174.886 60.4737C175.587 60.1634 176.354 60.0082 177.189 60.0082C178.513 60.0082 179.55 60.3397 180.299 61.0027C181.05 61.6586 181.44 62.5649 181.468 63.7216V68.9901C181.468 70.0411 181.602 70.8767 181.871 71.4974V71.6667H179.811ZM176.553 70.1751C177.169 70.1751 177.752 70.0164 178.304 69.6989C178.856 69.3816 179.256 68.9689 179.503 68.4612V66.1126H177.965C175.558 66.1126 174.356 66.8142 174.356 68.2179C174.356 68.8314 174.56 69.3111 174.971 69.6566C175.381 70.0022 175.91 70.1751 176.553 70.1751ZM194.545 70.2809C195.246 70.2809 195.858 70.0692 196.381 69.6461C196.905 69.2229 197.195 68.6939 197.252 68.0591H199.109C199.073 68.7151 198.848 69.3392 198.43 69.9317C198.012 70.5242 197.453 70.9967 196.752 71.3494C196.058 71.7021 195.323 71.8784 194.545 71.8784C192.981 71.8784 191.736 71.3599 190.809 70.3231C189.888 69.2792 189.428 67.8546 189.428 66.0491V65.7211C189.428 64.6067 189.634 63.6157 190.043 62.7482C190.455 61.8807 191.042 61.2072 191.806 60.7276C192.577 60.2481 193.486 60.0082 194.535 60.0082C195.823 60.0082 196.891 60.3926 197.741 61.1614C198.597 61.9301 199.053 62.9281 199.109 64.1554H197.252C197.195 63.4147 196.911 62.8082 196.403 62.3357C195.9 61.8561 195.277 61.6162 194.535 61.6162C193.537 61.6162 192.761 61.9759 192.209 62.6954C191.665 63.4077 191.393 64.4411 191.393 65.7952V66.1654C191.393 67.4844 191.665 68.4999 192.209 69.2122C192.754 69.9247 193.533 70.2809 194.545 70.2809ZM209.851 61.8067H205.998V71.6667H204.035V61.8067H200.256V60.2197H209.851V61.8067ZM210.796 65.8374C210.796 64.7161 211.015 63.7074 211.455 62.8117C211.9 61.9161 212.515 61.2249 213.301 60.7382C214.093 60.2516 214.997 60.0082 216.008 60.0082C217.572 60.0082 218.834 60.5477 219.797 61.6269C220.767 62.7059 221.252 64.1412 221.252 65.9327V66.0702C221.252 67.1846 221.037 68.1861 220.604 69.0747C220.179 69.9564 219.567 70.6441 218.767 71.1377C217.975 71.6314 217.062 71.8784 216.03 71.8784C214.473 71.8784 213.209 71.3387 212.239 70.2597C211.277 69.1806 210.796 67.7524 210.796 65.9751V65.8374ZM212.771 66.0702C212.771 67.3397 213.063 68.3589 213.652 69.1277C214.246 69.8964 215.038 70.2809 216.03 70.2809C217.027 70.2809 217.819 69.8929 218.406 69.1171C218.995 68.3342 219.287 67.2411 219.287 65.8374C219.287 64.5821 218.986 63.5664 218.386 62.7906C217.791 62.0077 216.998 61.6162 216.008 61.6162C215.038 61.6162 214.256 62.0007 213.662 62.7694C213.068 63.5382 212.771 64.6384 212.771 66.0702ZM230.328 69.0747L234.234 60.2197H236.685V71.6667H234.722V63.3407L231.007 71.6667H229.649L225.858 63.1609V71.6667H223.895V60.2197H226.443L230.328 69.0747ZM246.94 71.6667C246.826 71.4411 246.734 71.0391 246.664 70.4607C245.751 71.4057 244.66 71.8784 243.395 71.8784C242.262 71.8784 241.331 71.5609 240.602 70.9262C239.881 70.2844 239.52 69.4732 239.52 68.4929C239.52 67.3009 239.973 66.3771 240.878 65.7211C241.791 65.0581 243.072 64.7266 244.721 64.7266H246.632V63.8274C246.632 63.1432 246.426 62.6002 246.017 62.1981C245.605 61.7891 245 61.5846 244.201 61.5846C243.5 61.5846 242.913 61.7609 242.44 62.1136C241.965 62.4662 241.727 62.8929 241.727 63.3936H239.754C239.754 62.8224 239.955 62.2722 240.358 61.7432C240.769 61.2072 241.321 60.7841 242.015 60.4737C242.716 60.1634 243.483 60.0082 244.318 60.0082C245.64 60.0082 246.677 60.3397 247.428 61.0027C248.177 61.6586 248.567 62.5649 248.595 63.7216V68.9901C248.595 70.0411 248.731 70.8767 248.998 71.4974V71.6667H246.94ZM243.68 70.1751C244.296 70.1751 244.879 70.0164 245.433 69.6989C245.985 69.3816 246.384 68.9689 246.632 68.4612V66.1126H245.092C242.687 66.1126 241.483 66.8142 241.483 68.2179C241.483 68.8314 241.689 69.3111 242.099 69.6566C242.51 70.0022 243.037 70.1751 243.68 70.1751ZM260.038 61.8067H256.185V71.6667H254.221V61.8067H250.443V60.2197H260.038V61.8067ZM260.983 65.8374C260.983 64.7161 261.202 63.7074 261.64 62.8117C262.087 61.9161 262.702 61.2249 263.488 60.7382C264.281 60.2516 265.182 60.0082 266.195 60.0082C267.759 60.0082 269.022 60.5477 269.985 61.6269C270.953 62.7059 271.438 64.1412 271.438 65.9327V66.0702C271.438 67.1846 271.222 68.1861 270.791 69.0747C270.366 69.9564 269.754 70.6441 268.955 71.1377C268.162 71.6314 267.249 71.8784 266.216 71.8784C264.659 71.8784 263.396 71.3387 262.426 70.2597C261.465 69.1806 260.983 67.7524 260.983 65.9751V65.8374ZM262.958 66.0702C262.958 67.3397 263.251 68.3589 263.838 69.1277C264.433 69.8964 265.226 70.2809 266.216 70.2809C267.214 70.2809 268.007 69.8929 268.594 69.1171C269.18 68.3342 269.475 67.2411 269.475 65.8374C269.475 64.5821 269.174 63.5664 268.572 62.7906C267.978 62.0077 267.185 61.6162 266.195 61.6162C265.226 61.6162 264.443 62.0007 263.849 62.7694C263.254 63.5382 262.958 64.6384 262.958 66.0702ZM283.147 60.2197V71.6667H281.172V61.8384H277.266L277.033 66.1231C276.905 68.0909 276.572 69.4979 276.035 70.3442C275.503 71.1907 274.659 71.6314 273.498 71.6667H272.712V69.9422L273.274 69.8999C273.911 69.8294 274.368 69.4627 274.644 68.7997C274.92 68.1367 275.097 66.9096 275.175 65.1181L275.388 60.2197H283.147ZM285.779 65.8374C285.779 64.7161 285.998 63.7074 286.438 62.8117C286.883 61.9161 287.498 61.2249 288.284 60.7382C289.077 60.2516 289.98 60.0082 290.991 60.0082C292.555 60.0082 293.818 60.5477 294.781 61.6269C295.751 62.7059 296.234 64.1412 296.234 65.9327V66.0702C296.234 67.1846 296.018 68.1861 295.587 69.0747C295.162 69.9564 294.55 70.6441 293.751 71.1377C292.958 71.6314 292.045 71.8784 291.012 71.8784C289.455 71.8784 288.192 71.3387 287.222 70.2597C286.261 69.1806 285.779 67.7524 285.779 65.9751V65.8374ZM287.754 66.0702C287.754 67.3397 288.047 68.3589 288.635 69.1277C289.229 69.8964 290.022 70.2809 291.012 70.2809C292.01 70.2809 292.803 69.8929 293.389 69.1171C293.978 68.3342 294.271 67.2411 294.271 65.8374C294.271 64.5821 293.97 63.5664 293.369 62.7906C292.774 62.0077 291.981 61.6162 290.991 61.6162C290.022 61.6162 289.239 62.0007 288.645 62.7694C288.05 63.5382 287.754 64.6384 287.754 66.0702ZM306.117 61.8384H300.821V71.6667H298.846V60.2197H306.117V61.8384ZM315.256 60.2197H317.221V71.6667H315.256V63.3196L309.96 71.6667H307.997V60.2197H309.96V68.5776L315.256 60.2197ZM327.803 60.2197H329.767V71.6667H327.803V63.3196L322.507 71.6667H320.543V60.2197H322.507V68.5776L327.803 60.2197ZM345.742 60.2197H347.706V71.6667H345.742V63.3196L340.445 71.6667H338.481V60.2197H340.445V68.5776L345.742 60.2197ZM359.828 66.7896H358.395V71.6667H356.421V60.2197H358.395V65.0652H359.679L363.543 60.2197H365.921L361.378 65.7211L366.303 71.6667H363.809L359.828 66.7896ZM367.237 65.8374C367.237 64.7161 367.456 63.7074 367.895 62.8117C368.341 61.9161 368.956 61.2249 369.742 60.7382C370.535 60.2516 371.436 60.0082 372.45 60.0082C374.013 60.0082 375.276 60.5477 376.239 61.6269C377.207 62.7059 377.692 64.1412 377.692 65.9327V66.0702C377.692 67.1846 377.476 68.1861 377.045 69.0747C376.62 69.9564 376.008 70.6441 375.209 71.1377C374.416 71.6314 373.503 71.8784 372.47 71.8784C370.913 71.8784 369.65 71.3387 368.68 70.2597C367.719 69.1806 367.237 67.7524 367.237 65.9751V65.8374ZM369.212 66.0702C369.212 67.3397 369.505 68.3589 370.092 69.1277C370.687 69.8964 371.48 70.2809 372.47 70.2809C373.468 70.2809 374.261 69.8929 374.848 69.1171C375.435 68.3342 375.729 67.2411 375.729 65.8374C375.729 64.5821 375.428 63.5664 374.826 62.7906C374.232 62.0077 373.44 61.6162 372.45 61.6162C371.48 61.6162 370.697 62.0007 370.104 62.7694C369.508 63.5382 369.212 64.6384 369.212 66.0702ZM384.762 70.2809C385.463 70.2809 386.075 70.0692 386.599 69.6461C387.122 69.2229 387.413 68.6939 387.47 68.0591H389.326C389.291 68.7151 389.065 69.3392 388.647 69.9317C388.229 70.5242 387.67 70.9967 386.97 71.3494C386.276 71.7021 385.54 71.8784 384.762 71.8784C383.199 71.8784 381.953 71.3599 381.027 70.3231C380.105 69.2792 379.645 67.8546 379.645 66.0491V65.7211C379.645 64.6067 379.851 63.6157 380.261 62.7482C380.672 61.8807 381.259 61.2072 382.023 60.7276C382.794 60.2481 383.704 60.0082 384.752 60.0082C386.04 60.0082 387.109 60.3926 387.958 61.1614C388.814 61.9301 389.271 62.9281 389.326 64.1554H387.47C387.413 63.4147 387.129 62.8082 386.62 62.3357C386.117 61.8561 385.495 61.6162 384.752 61.6162C383.754 61.6162 382.978 61.9759 382.426 62.6954C381.883 63.4077 381.61 64.4411 381.61 65.7952V66.1654C381.61 67.4844 381.883 68.4999 382.426 69.2122C382.971 69.9247 383.751 70.2809 384.762 70.2809ZM398.147 69.0747L402.053 60.2197H404.507V71.6667H402.542V63.3407L398.828 71.6667H397.468L393.679 63.1609V71.6667H391.716V60.2197H394.262L398.147 69.0747ZM412.435 71.8784C410.878 71.8784 409.612 71.3706 408.635 70.3549C407.659 69.3322 407.17 67.9674 407.17 66.2606V65.9009C407.17 64.7654 407.386 63.7534 407.818 62.8647C408.256 61.9689 408.864 61.2707 409.644 60.7699C410.43 60.2621 411.277 60.0082 412.19 60.0082C413.684 60.0082 414.844 60.4984 415.672 61.4787C416.5 62.4591 416.915 63.8626 416.915 65.6894V66.5039H409.134C409.162 67.6324 409.491 68.5457 410.12 69.2441C410.757 69.9352 411.565 70.2809 412.542 70.2809C413.234 70.2809 413.823 70.1397 414.303 69.8577C414.784 69.5756 415.206 69.2017 415.567 68.7362L416.766 69.6672C415.804 71.1412 414.359 71.8784 412.435 71.8784ZM412.19 61.6162C411.398 61.6162 410.732 61.9054 410.196 62.4837C409.657 63.0551 409.324 63.8591 409.197 64.8959H414.951V64.7477C414.895 63.7534 414.625 62.9846 414.144 62.4414C413.662 61.8914 413.012 61.6162 412.19 61.6162ZM427.604 61.8067H423.751V71.6667H421.787V61.8067H418.008V60.2197H427.604V61.8067ZM428.548 65.8374C428.548 64.7161 428.767 63.7074 429.207 62.8117C429.652 61.9161 430.267 61.2249 431.053 60.7382C431.846 60.2516 432.749 60.0082 433.761 60.0082C435.324 60.0082 436.587 60.5477 437.55 61.6269C438.52 62.7059 439.003 64.1412 439.003 65.9327V66.0702C439.003 67.1846 438.787 68.1861 438.356 69.0747C437.931 69.9564 437.319 70.6441 436.52 71.1377C435.727 71.6314 434.814 71.8784 433.781 71.8784C432.224 71.8784 430.961 71.3387 429.992 70.2597C429.03 69.1806 428.548 67.7524 428.548 65.9751V65.8374ZM430.523 66.0702C430.523 67.3397 430.816 68.3589 431.403 69.1277C431.998 69.8964 432.791 70.2809 433.781 70.2809C434.779 70.2809 435.572 69.8929 436.159 69.1171C436.746 68.3342 437.04 67.2411 437.04 65.8374C437.04 64.5821 436.739 63.5664 436.139 62.7906C435.543 62.0077 434.751 61.6162 433.761 61.6162C432.791 61.6162 432.008 62.0007 431.415 62.7694C430.819 63.5382 430.523 64.6384 430.523 66.0702ZM450.712 60.2197V71.6667H448.737V61.8384H444.831L444.599 66.1231C444.47 68.0909 444.139 69.4979 443.6 70.3442C443.07 71.1907 442.224 71.6314 441.063 71.6667H440.277V69.9422L440.841 69.8999C441.476 69.8294 441.933 69.4627 442.209 68.7997C442.485 68.1367 442.662 66.9096 442.741 65.1181L442.953 60.2197H450.712ZM453.344 65.8374C453.344 64.7161 453.563 63.7074 454.003 62.8117C454.448 61.9161 455.063 61.2249 455.849 60.7382C456.642 60.2516 457.545 60.0082 458.557 60.0082C460.12 60.0082 461.383 60.5477 462.346 61.6269C463.316 62.7059 463.801 64.1412 463.801 65.9327V66.0702C463.801 67.1846 463.583 68.1861 463.152 69.0747C462.727 69.9564 462.115 70.6441 461.316 71.1377C460.523 71.6314 459.61 71.8784 458.577 71.8784C457.022 71.8784 455.757 71.3387 454.788 70.2597C453.826 69.1806 453.344 67.7524 453.344 65.9751V65.8374ZM455.319 66.0702C455.319 67.3397 455.612 68.3589 456.201 69.1277C456.794 69.8964 457.587 70.2809 458.577 70.2809C459.575 70.2809 460.368 69.8929 460.955 69.1171C461.543 68.3342 461.836 67.2411 461.836 65.8374C461.836 64.5821 461.535 63.5664 460.935 62.7906C460.339 62.0077 459.547 61.6162 458.557 61.6162C457.587 61.6162 456.804 62.0007 456.211 62.7694C455.615 63.5382 455.319 64.6384 455.319 66.0702ZM473.682 61.8384H468.386V71.6667H466.411V60.2197H473.682V61.8384ZM482.823 60.2197H484.786V71.6667H482.823V63.3196L477.525 71.6667H475.562V60.2197H477.525V68.5776L482.823 60.2197ZM495.368 60.2197H497.333V71.6667H495.368V63.3196L490.072 71.6667H488.109V60.2197H490.072V68.5776L495.368 60.2197Z" fill="#194A97"/>
</svg>
